<svg width="16" height="16" viewBox="0 0 16 16" fill="none" xmlns="http://www.w3.org/2000/svg">
<path d="M9.365 14.2287C9.365 14.2287 8.6525 14.1725 8.62375 13.755L8.21875 12.5787L9.98 10.9412C9.98 10.9412 11.2713 10.9162 11.345 10.9162C11.42 10.9162 11.7662 12.5787 11.7662 12.5787L11.1462 13.5962L9.365 14.2287Z" fill="#2F2F2F"/>
<path d="M9.37904 6.71625C9.41779 7.06125 9.49154 7.3625 9.73279 7.61625C9.92654 7.81875 10.129 7.99125 10.3078 8.2075C10.8228 8.83125 11.6903 9.04625 12.2228 9.7C12.5778 10.1363 12.819 10.6713 12.9415 11.2138C13.079 11.8238 13.164 12.4975 12.994 13.0975C12.7603 13.92 12.0415 14.02 11.2903 14.1338C10.9453 14.1863 10.594 14.2163 10.244 14.2263C9.96529 14.2338 9.64279 14.2688 9.36404 14.23C9.12029 14.195 9.07404 13.865 9.14029 13.6713C9.21029 13.4625 9.42029 13.3838 9.61654 13.3463C9.71279 13.3275 9.81404 13.355 9.91154 13.3388C10.0928 13.31 10.169 13.1913 10.1728 13.01C10.1765 12.7625 10.2615 12.5563 10.3753 12.34C10.4265 12.2425 10.5128 12.1563 10.5953 12.0825C10.679 12.005 10.824 11.8988 10.744 11.7638C10.6065 11.5288 10.189 11.745 10.0478 11.8463C9.82904 12.0013 9.67404 12.2363 9.60654 12.495C9.51029 12.8538 9.43654 12.8775 9.10154 13.005C8.90404 13.0813 8.72154 13.2075 8.64654 13.4038C8.55529 13.6475 8.70779 13.935 8.55029 14.1475C8.42654 14.3175 8.18654 14.4113 7.96654 14.4025C7.39904 14.3775 7.01904 14.2388 7.13779 13.6613C7.21279 13.2988 7.18904 12.9013 7.21154 12.525C7.21904 12.3838 7.23279 12.1675 7.09154 12.0688C7.03654 12.0288 6.96029 12.0225 6.89654 12.0263C6.85279 12.0275 6.74279 12.0213 6.70154 12.035C6.58029 12.0738 6.60904 12.2688 6.61029 12.3713C6.61154 12.5688 6.60779 12.77 6.60279 12.965C6.59779 13.1963 6.62279 13.425 6.62529 13.6538C6.62654 13.8038 6.64029 13.9888 6.51654 14.095C6.37529 14.22 6.15904 14.2475 5.96654 14.2538C5.73529 14.2625 5.47154 14.245 5.27904 14.11C4.88529 13.8325 5.01904 13.1963 5.05529 12.825C5.07904 12.5838 5.06154 12.3325 5.05529 12.085C5.05029 11.8625 5.04404 11.6388 5.03904 11.4138C5.03654 11.3213 5.02404 11.2213 5.02904 11.1263C5.04779 10.8638 4.99404 10.595 4.98654 10.3225C4.97404 9.8225 4.94779 9.31375 4.94779 8.805C4.94779 8.5875 4.98529 8.34875 5.04779 8.1425C5.08154 8.0325 5.11779 7.885 5.17654 7.78875C5.26904 7.635 5.42904 7.4975 5.56279 7.3775C5.73529 7.22375 5.94029 7.14625 6.13779 7.0275C6.39404 6.8725 6.66154 6.72625 6.93904 6.6075C7.42654 6.4 7.94779 6.2225 8.49279 6.2025C8.68404 6.195 8.82779 6.165 9.01279 6.1225C9.19904 6.08 9.29154 6.205 9.32529 6.38C9.35404 6.48875 9.36654 6.6025 9.37904 6.71625ZM7.39154 3.11625C7.39154 3.11625 7.12529 2.79 6.50529 1.89375C6.12279 1.33875 4.91654 -0.223747 4.30654 0.100003C3.36529 0.597503 3.47029 4.1225 3.47029 4.1225L7.39154 3.11625ZM7.78654 3.15875C7.78654 3.15875 8.11529 2.89625 8.90779 2.14625C9.39904 1.68375 10.9028 0.407503 11.4328 0.848753C12.2503 1.53125 11.414 4.9575 11.414 4.9575L7.78654 3.15875Z" fill="#F79329"/>
<path d="M11.9144 6.485C11.9557 5.39625 11.4482 4.21625 10.5544 3.42375C9.83191 2.78125 8.75941 2.38 7.68066 2.26875C6.60191 2.15375 5.47066 2.32375 4.63066 2.8C3.59066 3.39 2.85066 4.4375 2.66316 5.5125C2.48566 6.5325 2.58566 7.58875 3.46691 8.40375C3.95566 8.855 4.58691 9.19375 5.25191 9.41C5.50441 9.4925 6.15941 9.69125 6.85816 9.765C7.55941 9.83875 8.30441 9.7875 8.56941 9.75875C9.26441 9.685 9.95316 9.48625 10.5244 9.1475C11.5582 8.5325 11.8757 7.52 11.9144 6.485" fill="#F79329"/>
<path d="M5.7268 6.07749C5.6843 6.47874 5.36055 6.77374 5.0043 6.73624C4.64805 6.69874 4.3918 6.34374 4.4343 5.94124C4.4768 5.53874 4.80055 5.24374 5.1568 5.28124C5.51305 5.31999 5.76805 5.67499 5.7268 6.07749ZM8.73305 6.39374C8.69055 6.79499 8.94555 7.15124 9.3018 7.18874C9.65805 7.22624 9.9818 6.93124 10.0243 6.52999C10.0668 6.12749 9.8118 5.77124 9.45555 5.73374C9.09805 5.69749 8.77555 5.99124 8.73305 6.39374ZM7.0893 8.08624C7.08305 8.08624 7.07555 8.08624 7.0693 8.08499C6.96305 8.07374 6.88555 7.97874 6.8968 7.87124L6.9718 7.15749C6.98305 7.05124 7.0793 6.97874 7.18555 6.98499C7.2918 6.99624 7.3693 7.09124 7.35805 7.19874L7.28305 7.91124C7.2718 8.01124 7.18805 8.08624 7.0893 8.08624Z" fill="#2F2F2F"/>
<path d="M6.52335 8.55249C6.3271 8.55124 6.1296 8.49124 5.98585 8.38124C5.8721 8.29374 5.69085 8.02874 5.8771 7.92749C5.9071 7.91124 5.94085 7.90249 5.9746 7.89874C6.02835 7.89124 6.0721 7.90499 6.1171 7.93874C6.1896 7.99249 6.25085 8.08874 6.34085 8.10624C6.6221 8.16374 6.8646 8.01999 6.9321 7.73749C6.9496 7.66124 6.95585 7.62499 7.04585 7.61624C7.2646 7.59624 7.3171 7.87124 7.2571 8.03499C7.20335 8.18124 7.13335 8.33874 6.9971 8.42624C6.8571 8.51499 6.68835 8.55374 6.52335 8.55249Z" fill="#2F2F2F"/>
<path d="M7.54736 8.645C7.74111 8.68 7.94611 8.65625 8.10861 8.575C8.23611 8.50875 8.46361 8.2825 8.29861 8.14875C8.19486 8.065 8.10361 8.09875 8.00236 8.16375C7.74486 8.33 7.39236 8.2125 7.30611 7.9125C7.28736 7.84375 7.31361 7.735 7.28236 7.67375C7.26736 7.645 7.24361 7.65125 7.20861 7.63875C7.18486 7.63 7.16986 7.62 7.14361 7.61875C7.02236 7.61125 6.95236 7.74125 6.93361 7.84375C6.92361 7.89875 6.91236 7.945 6.92111 8C6.94736 8.155 6.98736 8.32125 7.10611 8.4325C7.22611 8.5475 7.38486 8.615 7.54736 8.645Z" fill="#2F2F2F"/>
<path d="M6.50013 7.20375C6.49638 7.3375 6.57263 7.485 6.70138 7.585C6.80638 7.66625 6.96138 7.71875 7.11513 7.73375C7.26888 7.75 7.43138 7.73125 7.55013 7.675C7.69763 7.60375 7.80263 7.47625 7.82638 7.34375C7.85013 7.21875 7.83388 7.08625 7.70513 6.98375C7.63513 6.92625 7.54388 6.88375 7.44763 6.85625C7.41263 6.845 7.31763 6.81875 7.21763 6.80875C7.11638 6.7975 7.01013 6.8025 6.97263 6.80625C6.87388 6.81375 6.77513 6.8375 6.69388 6.8775C6.54763 6.95125 6.50388 7.075 6.50013 7.20375Z" fill="#2F2F2F"/>
<path d="M12.2044 12.4062C12.3569 12.305 12.5169 12.35 12.6869 12.37C13.4194 12.455 14.2494 13.0975 14.2794 13.8625C14.3157 14.845 13.4419 15.555 12.5719 15.7887C11.9382 15.9587 11.2519 15.9587 10.5994 15.9325C10.3144 15.9212 9.79941 15.9687 9.54816 15.8087C9.45816 15.7525 9.37941 15.635 9.33816 15.5387C9.18691 15.1875 9.49191 14.9425 9.81816 14.9437C10.0557 14.945 10.2932 14.9487 10.5319 14.9462C11.0519 14.9425 11.5744 14.9812 12.0882 14.8787C12.5557 14.7862 13.2407 14.42 13.2119 13.85C13.1907 13.4312 12.7257 13.3487 12.3907 13.2987C12.3057 13.2862 12.2219 13.2587 12.1244 13.2562C11.9332 13.2512 11.9419 13.0712 11.9557 12.9312C11.9757 12.7325 12.0069 12.5662 12.1732 12.43C12.1794 12.4225 12.1919 12.4137 12.2044 12.4062ZM2.96816 6.21499C2.95566 6.21499 2.94316 6.21374 2.93066 6.21124L1.90316 6.00999C1.79816 5.98999 1.72941 5.88749 1.75066 5.78249C1.77066 5.67749 1.87566 5.60749 1.97816 5.62999L3.00566 5.83249C3.11066 5.85249 3.17941 5.95499 3.15816 6.05874C3.13941 6.14999 3.05816 6.21499 2.96816 6.21499ZM1.91191 7.00249C1.81566 7.00249 1.73316 6.93124 1.72066 6.83374C1.70566 6.72749 1.78066 6.63124 1.88691 6.61624L2.92566 6.47999C3.02941 6.46499 3.12816 6.53999 3.14316 6.64624C3.15691 6.75249 3.08191 6.84999 2.97691 6.86374L1.93816 6.99999C1.92941 7.00249 1.92191 7.00249 1.91191 7.00249ZM2.21816 7.87749C2.13441 7.87749 2.05691 7.82249 2.03191 7.73624C2.00191 7.63374 2.06191 7.52749 2.16566 7.49749L3.17191 7.20999C3.27441 7.18124 3.38191 7.23999 3.41191 7.34374C3.44066 7.44624 3.38191 7.55374 3.27816 7.58249L2.27191 7.86999C2.25316 7.87499 2.23566 7.87749 2.21816 7.87749ZM11.4632 6.96374C11.3657 6.96374 11.2819 6.88999 11.2707 6.79124C11.265 6.74019 11.2799 6.689 11.312 6.64892C11.3442 6.60884 11.3909 6.58315 11.4419 6.57749L12.4832 6.46124C12.5869 6.45249 12.6857 6.52624 12.6969 6.63249C12.7094 6.73999 12.6319 6.83499 12.5257 6.84624L11.4844 6.96249C11.4769 6.96249 11.4694 6.96374 11.4632 6.96374ZM12.4482 7.83749C12.4344 7.83749 12.4207 7.83624 12.4057 7.83249L11.3832 7.60874C11.3332 7.59767 11.2896 7.56727 11.262 7.52417C11.2343 7.48107 11.2249 7.42879 11.2357 7.37874C11.2594 7.27499 11.3619 7.20874 11.4657 7.23124L12.4894 7.45499C12.5932 7.47749 12.6607 7.58124 12.6369 7.68499C12.6182 7.77499 12.5369 7.83749 12.4482 7.83749ZM12.0719 8.68249C12.0494 8.68249 12.0257 8.67874 12.0032 8.66999L11.0244 8.29999C10.9244 8.26249 10.8732 8.14999 10.9119 8.04999C10.9494 7.94999 11.0619 7.89999 11.1619 7.93749L12.1419 8.30749C12.2419 8.34624 12.2919 8.45749 12.2544 8.55749C12.2244 8.63499 12.1507 8.68249 12.0719 8.68249Z" fill="#F79329"/>
<path d="M4.49944 1.565C4.40819 1.8025 4.22444 2.48625 4.33944 2.9725C4.37319 3.1175 4.55819 3.1825 4.68944 3.12C4.96319 2.98875 5.39069 2.7575 5.55069 2.6775C5.82319 2.54375 5.91694 2.3775 5.76944 2.17375C5.58194 1.91375 5.11444 1.375 4.83819 1.3225C4.68069 1.2925 4.55944 1.41125 4.49944 1.565ZM10.9494 2.2225C11.0007 2.4725 11.0657 3.17625 10.8707 3.63875C10.8132 3.775 10.6194 3.80875 10.5007 3.725C10.2532 3.55 9.87194 3.25 9.72569 3.145C9.48069 2.9675 9.41444 2.7875 9.59444 2.61125C9.82194 2.38625 10.3732 1.9325 10.6544 1.9275C10.8157 1.92375 10.9169 2.06125 10.9494 2.2225Z" fill="#FCD4B5"/>
</svg>
