<svg width="51" height="51" viewBox="0 0 51 51" fill="none" xmlns="http://www.w3.org/2000/svg">
<path d="M25.5 0C39.5836 0 51 11.4164 51 25.5C51 39.5836 39.5836 51 25.5 51C11.4163 51 0 39.5836 0 25.5C0 11.4164 11.4163 0 25.5 0ZM35.7102 27.7389C34.8304 26.4002 35.088 21.9096 32.6706 22.2921C28.1061 23.0163 26.7061 27.3411 26.4894 28.6569L26.4282 29.0547L26.3645 29.478C26.1171 31.2197 26.1248 31.8776 26.9255 32.7165C30.1512 36.1029 32.0841 38.5432 32.6706 39.9712C32.9562 40.6674 33.6906 42.7762 33.1857 44.8622C36.2802 43.628 39.0351 41.6722 41.2207 39.1578C41.5012 38.2041 41.7052 37.0158 41.7052 35.5776V35.3098C41.7052 32.9587 41.7053 31.8852 40.0427 30.934C39.509 30.6297 38.96 30.3531 38.3979 30.1053C37.462 29.6794 36.8424 29.4015 36.006 28.1775C35.904 28.033 35.8054 27.8868 35.7102 27.7389ZM25.5 4.67415C19.5916 4.67415 14.2545 7.13745 10.4652 11.0899C10.9166 11.4036 11.3092 11.8447 11.5795 12.4516C12.0997 13.617 12.0997 14.818 12.0997 15.8814C12.0997 16.7178 12.0998 17.5134 12.3675 18.0872C12.7347 18.8726 14.3208 19.2092 15.7208 19.4999C16.2231 19.607 16.7382 19.714 17.2074 19.8441C18.4977 20.2011 19.4973 21.3613 20.2954 22.2921C20.6269 22.6771 21.1191 23.2458 21.3664 23.3886C21.4939 23.2968 21.9045 22.8505 22.1059 22.1187C22.264 21.5577 22.2181 21.063 21.9912 20.7927C20.5632 19.1097 20.6422 15.8712 21.0834 14.6753C21.777 12.7908 23.9445 12.9311 25.5306 13.033C26.1222 13.0713 26.6781 13.1095 27.0963 13.056C28.6824 12.8571 29.172 10.4422 29.5162 9.9705C30.2608 8.9505 32.5406 7.41285 33.9533 6.46425C31.2932 5.27825 28.4124 4.6682 25.5 4.67415Z" fill="white"/>
</svg>
