<svg width="33" height="33" viewBox="0 0 33 33" fill="none" xmlns="http://www.w3.org/2000/svg">
    <mask id="mask0_637_5126" style="mask-type:luminance" maskUnits="userSpaceOnUse" x="0" y="0" width="33" height="33">
        <path d="M32.25 0.5H0.25V32.5H32.25V0.5Z" fill="white"/>
    </mask>
    <g mask="url(#mask0_637_5126)">
        <path d="M28.3647 13.9495L18.7995 4.38428C19.6732 5.25797 19.1814 7.29195 17.7156 9.67715C16.818 11.1378 15.5551 12.7302 14.0169 14.2684C12.4787 15.8066 10.8864 17.0694 9.42569 17.967C7.04049 19.4328 5.00651 19.9246 4.13281 19.051L13.698 28.6161C14.5718 29.4899 16.6058 28.998 18.991 27.5322C20.4516 26.6346 22.0439 25.3718 23.5821 23.8336C25.1203 22.2954 26.3832 20.703 27.2808 19.2424C28.7466 16.8572 29.2384 14.8232 28.3647 13.9495Z" fill="#E4D46E"/>
        <path fill-rule="evenodd" clip-rule="evenodd" d="M5.07704 18.1045C5.12491 18.1275 5.34381 18.2092 5.93247 18.0826C6.64553 17.9293 7.60531 17.5208 8.72798 16.831C10.088 15.9952 11.5995 14.8003 13.0744 13.3254C14.5493 11.8505 15.7442 10.339 16.58 8.97896C17.2698 7.85629 17.6783 6.89651 17.8316 6.18345C17.9582 5.59478 17.8765 5.37588 17.8535 5.32802C17.8124 5.3084 17.6778 5.26366 17.36 5.29462C16.8988 5.33959 16.246 5.53329 15.429 5.92861C13.807 6.71347 11.807 8.16109 9.85858 10.1096C7.91011 12.058 6.46249 14.058 5.67763 15.68C5.28231 16.497 5.08861 17.1498 5.04365 17.611C5.01267 17.9288 5.05742 18.0634 5.07704 18.1045ZM20.1825 7.65242C19.8837 8.52156 19.4236 9.44489 18.8519 10.3752C17.8924 11.9364 16.5615 13.6095 14.96 15.211C13.3585 16.8125 11.6854 18.1434 10.1242 19.1029C9.19391 19.6746 8.27058 20.1347 7.40145 20.4335L14.6327 27.6648C14.6492 27.6738 14.8488 27.7874 15.4977 27.6479C16.2107 27.4945 17.1705 27.0861 18.2932 26.3962C19.6532 25.5604 21.1647 24.3656 22.6396 22.8906C24.1146 21.4157 25.3094 19.9042 26.1452 18.5442C26.8351 17.4215 27.2435 16.4618 27.3968 15.7487C27.5364 15.0998 27.4228 14.9002 27.4138 14.8837L20.1825 7.65242ZM19.7426 3.44134L29.3078 13.0066C30.2329 13.9316 30.232 15.2491 30.0039 16.3094C29.7634 17.428 29.193 18.6778 28.4171 19.9404C27.4576 21.5016 26.1268 23.1748 24.5252 24.7762C22.9238 26.3778 21.2506 27.7086 19.6894 28.6681C18.4268 29.444 17.177 30.0144 16.0584 30.2549C14.9981 30.483 13.6806 30.4839 12.7556 29.5588L3.19036 19.9936C2.44263 19.2459 2.30384 18.2316 2.38956 17.3523C2.47644 16.4611 2.80705 15.4902 3.27721 14.5186C4.22331 12.5633 5.87135 10.3256 7.97298 8.22396C10.0746 6.12232 12.3123 4.47429 14.2676 3.52818C15.2392 3.05802 16.2101 2.72742 17.1013 2.64054C17.9806 2.55482 18.9949 2.69361 19.7426 3.44134Z" fill="#E4D46E"/>
    </g>
</svg>