<svg width="49" height="56" viewBox="0 0 49 56" fill="none" xmlns="http://www.w3.org/2000/svg">
    <g filter="url(#filter0_d_700_46)">
        <path fill-rule="evenodd" clip-rule="evenodd" d="M25.8518 46.7841L25.8244 46.7885L25.6627 46.865L25.6172 46.8738L25.5853 46.865L25.4235 46.7863C25.3992 46.7805 25.381 46.7848 25.3689 46.7994L25.3598 46.8213L25.321 47.7572L25.3324 47.801L25.3552 47.8294L25.5921 47.9912L25.6263 48L25.6536 47.9912L25.8905 47.8294L25.9178 47.7944L25.9269 47.7572L25.8882 46.8235C25.8821 46.8001 25.87 46.787 25.8518 46.7841ZM26.4531 46.537L26.4212 46.5414L26.0021 46.7447L25.9793 46.7666L25.9725 46.7907L26.0135 47.731L26.0249 47.7572L26.0431 47.7747L26.5009 47.9759C26.5298 47.9832 26.5518 47.9774 26.567 47.9584L26.5761 47.9278L26.4987 46.5851C26.4911 46.5574 26.4759 46.5414 26.4531 46.537ZM24.8245 46.5414C24.8144 46.5355 24.8025 46.5336 24.791 46.5361C24.7795 46.5385 24.7695 46.5451 24.763 46.5545L24.7493 46.5851L24.6719 47.9278C24.6734 47.9541 24.6863 47.9716 24.7106 47.9803L24.7448 47.9759L25.2026 47.7726L25.2254 47.7551L25.2322 47.731L25.2732 46.7907L25.2664 46.7644L25.2436 46.7426L24.8245 46.5414Z" fill="white"/>
        <path fill-rule="evenodd" clip-rule="evenodd" d="M34.4949 4.37986C35.0033 4.34204 35.5102 4.4691 35.9344 4.74069L39.0322 6.72415L13.9812 8.57203L11.3914 6.08559L34.4949 4.37986ZM8.55556 9.54954V29.0561C8.55556 29.5293 8.7154 29.9897 9.01111 30.3682L10.8333 32.6994V11.7364L8.55556 9.54954ZM40.4444 35.0481L15.3889 36.8981V12.856L40.4444 11.006V35.0481ZM45 35.0481C44.9999 36.1501 44.5665 37.2114 43.7865 38.0199C43.0065 38.8283 41.9374 39.3243 40.7929 39.4086L14.5324 41.3483C13.7685 41.4047 13.0021 41.2751 12.3041 40.9716C11.6062 40.6681 10.9993 40.2004 10.5395 39.612L5.36667 32.9902C4.47955 31.8547 4 30.4734 4 29.0539V6.29553C4.00008 5.19353 4.43345 4.13217 5.21346 3.32371C5.99346 2.51525 7.06259 2.01928 8.20706 1.93497L34.1464 0.019305C35.67 -0.0931443 37.189 0.287985 38.4605 1.10179L42.9705 3.98842C43.5946 4.38769 44.1065 4.92875 44.4605 5.56355C44.8145 6.19834 44.9999 6.90724 45 7.62731V35.0481ZM35.8889 16.2981C35.8889 15.7181 35.6489 15.1619 35.2217 14.7518C34.7946 14.3417 34.2152 14.1113 33.6111 14.1113C33.007 14.1113 32.4276 14.3417 32.0005 14.7518C31.5733 15.1619 31.3333 15.7181 31.3333 16.2981V25.6578L25.3018 16.2456C25.0979 15.9274 24.8124 15.6647 24.4727 15.4824C24.133 15.3002 23.7503 15.2046 23.3611 15.2047H22.2222C21.6181 15.2047 21.0388 15.4351 20.6116 15.8452C20.1844 16.2553 19.9444 16.8116 19.9444 17.3915V32.6994C19.9444 33.2794 20.1844 33.8356 20.6116 34.2457C21.0388 34.6558 21.6181 34.8862 22.2222 34.8862C22.8263 34.8862 23.4057 34.6558 23.8329 34.2457C24.26 33.8356 24.5 33.2794 24.5 32.6994V23.3397L30.5316 32.7519C30.7355 33.0701 31.0209 33.3329 31.3606 33.5151C31.7004 33.6973 32.0831 33.7929 32.4722 33.7928H33.6111C34.2152 33.7928 34.7946 33.5624 35.2217 33.1523C35.6489 32.7422 35.8889 32.186 35.8889 31.606V16.2981Z" fill="white"/>
    </g>
    <defs>
        <filter id="filter0_d_700_46" x="0" y="0" width="49" height="56" filterUnits="userSpaceOnUse" color-interpolation-filters="sRGB">
            <feFlood flood-opacity="0" result="BackgroundImageFix"/>
            <feColorMatrix in="SourceAlpha" type="matrix" values="0 0 0 0 0 0 0 0 0 0 0 0 0 0 0 0 0 0 127 0" result="hardAlpha"/>
            <feOffset dy="4"/>
            <feGaussianBlur stdDeviation="2"/>
            <feComposite in2="hardAlpha" operator="out"/>
            <feColorMatrix type="matrix" values="0 0 0 0 0 0 0 0 0 0 0 0 0 0 0 0 0 0 0.25 0"/>
            <feBlend mode="normal" in2="BackgroundImageFix" result="effect1_dropShadow_700_46"/>
            <feBlend mode="normal" in="SourceGraphic" in2="effect1_dropShadow_700_46" result="shape"/>
        </filter>
    </defs>
</svg>