<svg width="71" height="71" viewBox="0 0 71 71" fill="none" xmlns="http://www.w3.org/2000/svg">
<path d="M65.9545 35.5H69M35.5 5.04545V2M35.5 69V65.9545M59.8636 59.8636L56.8182 56.8182M59.8636 11.1364L56.8182 14.1818M11.1364 59.8636L14.1818 56.8182M11.1364 11.1364L14.1818 14.1818M2 35.5H5.04545M35.5 53.7727C40.3462 53.7727 44.994 51.8476 48.4208 48.4208C51.8476 44.994 53.7727 40.3462 53.7727 35.5C53.7727 30.6538 51.8476 26.006 48.4208 22.5792C44.994 19.1524 40.3462 17.2273 35.5 17.2273C30.6538 17.2273 26.006 19.1524 22.5792 22.5792C19.1524 26.006 17.2273 30.6538 17.2273 35.5C17.2273 40.3462 19.1524 44.994 22.5792 48.4208C26.006 51.8476 30.6538 53.7727 35.5 53.7727Z" stroke="white" stroke-width="4" stroke-linecap="round" stroke-linejoin="round"/>
</svg>
