<svg viewBox="0 0 83 83" fill="none" xmlns="http://www.w3.org/2000/svg">
    <path d="M64.6818 41.5H67M41.5 18.3182V16M41.5 67V64.6818M60.0455 60.0455L57.7273 57.7273M60.0455 22.9545L57.7273 25.2727M22.9545 60.0455L25.2727 57.7273M22.9545 22.9545L25.2727 25.2727M16 41.5H18.3182M41.5 55.4091C45.1889 55.4091 48.7268 53.9437 51.3352 51.3352C53.9437 48.7268 55.4091 45.1889 55.4091 41.5C55.4091 37.8111 53.9437 34.2732 51.3352 31.6648C48.7268 29.0563 45.1889 27.5909 41.5 27.5909C37.8111 27.5909 34.2732 29.0563 31.6648 31.6648C29.0563 34.2732 27.5909 37.8111 27.5909 41.5C27.5909 45.1889 29.0563 48.7268 31.6648 51.3352C34.2732 53.9437 37.8111 55.4091 41.5 55.4091Z"
          stroke="white" stroke-width="4"
          stroke-linecap="round"
          stroke-linejoin="round"/>
</svg>